<?xml version="1.0" encoding="UTF-8" standalone="no"?>
<!-- Created with Inkscape (http://www.inkscape.org/) -->

<svg
   xmlns:dc="http://purl.org/dc/elements/1.1/"
   xmlns:cc="http://creativecommons.org/ns#"
   xmlns:rdf="http://www.w3.org/1999/02/22-rdf-syntax-ns#"
   xmlns:svg="http://www.w3.org/2000/svg"
   xmlns="http://www.w3.org/2000/svg"
   xmlns:sodipodi="http://sodipodi.sourceforge.net/DTD/sodipodi-0.dtd"
   xmlns:inkscape="http://www.inkscape.org/namespaces/inkscape"
   version="1.1"
   id="svg110"
   xml:space="preserve"
   width="4920.9448"
   height="4920.9448"
   viewBox="0 0 4920.9448 4920.9448"
   sodipodi:docname="TAPIS_COURSE.svg"
   inkscape:version="0.92.2 5c3e80d, 2017-08-06"><metadata
     id="metadata116"><rdf:RDF><cc:Work
         rdf:about=""><dc:format>image/svg+xml</dc:format><dc:type
           rdf:resource="http://purl.org/dc/dcmitype/StillImage" /><dc:title></dc:title></cc:Work></rdf:RDF></metadata><defs
     id="defs114" /><sodipodi:namedview
     pagecolor="#000000"
     bordercolor="#666666"
     borderopacity="1"
     objecttolerance="10"
     gridtolerance="10"
     guidetolerance="10"
     inkscape:pageopacity="0"
     inkscape:pageshadow="2"
     inkscape:window-width="1920"
     inkscape:window-height="1036"
     id="namedview112"
     showgrid="false"
     inkscape:pagecheckerboard="true"
     inkscape:zoom="0.125"
     inkscape:cx="2724.5437"
     inkscape:cy="1923.9527"
     inkscape:window-x="1280"
     inkscape:window-y="0"
     inkscape:window-maximized="1"
     inkscape:current-layer="g118" /><g
     id="g118"
     inkscape:groupmode="layer"
     inkscape:label="pixartprinting-template-grand-format-adhesifs-pour-sols"
     transform="matrix(1.3333333,0,0,-1.3333333,0,4920.9449)"><path
       inkscape:connector-curvature="0"
       d="M -7.6591097e-6,1.2051829e-5 V 3690.7088 H 3690.7087 V 1.2051829e-5 Z"
       style="fill:#ffffff;fill-opacity:1;stroke:none;stroke-width:0.75115389"
       id="path61" /><g
       id="g186"><g
         id="g188" /></g><path
       style="fill:#e40000;stroke:none;stroke-width:1;stroke-opacity:1;fill-opacity:1"
       d="M 2445.7383 1950.2832 A 510.23621 510.23621 0 0 0 1950.2363 2460.4727 A 510.23621 510.23621 0 1 0 2970.709 2460.4727 A 510.23621 510.23621 0 0 0 2445.7383 1950.2832 z M 2446.6777 1988.2324 A 472.44099 472.44099 0 0 1 2932.9141 2460.4727 A 472.44099 472.44099 0 1 1 1988.0312 2460.4727 A 472.44099 472.44099 0 0 1 2446.6777 1988.2324 z "
       transform="matrix(0.75000002,0,0,-0.75000002,0,3690.7088)"
       id="path63" /><path
       style="fill:#000000;stroke:none;stroke-width:1;fill-opacity:1"
       d="M 2437.0391 1647.918 A 812.59843 812.59843 0 0 0 1647.873 2460.4727 A 812.59843 812.59843 0 1 0 3273.0703 2460.4727 A 812.59843 812.59843 0 0 0 2437.0391 1647.918 z M 2438.0977 1685.7441 A 774.80315 774.80315 0 0 1 3235.2754 2460.4727 A 774.80315 774.80315 0 1 1 1685.6699 2460.4727 A 774.80315 774.80315 0 0 1 2438.0977 1685.7441 z "
       transform="matrix(0.75000002,0,0,-0.75000002,0,3690.7088)"
       id="path67" /><path
       style="fill:#000000;stroke:none;stroke-width:1;fill-opacity:1"
       d="M 2400.875 400.94336 A 2059.8425 2059.8425 0 0 0 400.63086 2460.4727 A 2059.8425 2059.8425 0 1 0 4520.3145 2460.4727 A 2059.8425 2059.8425 0 0 0 2400.875 400.94336 z M 2401.9746 438.72656 A 2022.0473 2022.0473 0 0 1 4482.5195 2460.4727 A 2022.0473 2022.0473 0 1 1 438.42578 2460.4727 A 2022.0473 2022.0473 0 0 1 2401.9746 438.72656 z "
       transform="matrix(0.75000002,0,0,-0.75000002,0,3690.7088)"
       id="path71" /><path
       style="fill:#ff0000;stroke:none;stroke-width:1;fill-opacity:1"
       d="M 2392.1016 98.652344 A 2362.2047 2362.2047 0 0 0 98.267578 2460.4727 A 2362.2047 2362.2047 0 1 0 4822.6777 2460.4727 A 2362.2047 2362.2047 0 0 0 2392.1016 98.652344 z M 2393.2109 136.42578 A 2324.4094 2324.4094 0 0 1 4784.8809 2460.4727 A 2324.4094 2324.4094 0 1 1 136.0625 2460.4727 A 2324.4094 2324.4094 0 0 1 2393.2109 136.42578 z "
       transform="matrix(0.75000002,0,0,-0.75000002,0,3690.7088)"
       id="path75" /><rect
       style="fill:#000012;fill-opacity:1;stroke:none;stroke-width:0.75;stroke-opacity:1"
       id="rect7791"
       width="27.971624"
       height="913.66351"
       x="1831.181"
       y="-3363.0457"
       transform="scale(1,-1)" /><rect
       style="fill:#000012;fill-opacity:1;stroke:none;stroke-width:0.75;stroke-opacity:1"
       id="rect7791-1"
       width="27.971624"
       height="913.66351"
       x="1831.5559"
       y="-1240.4823"
       transform="scale(1,-1)" /></g></svg>