<?xml version="1.0" encoding="UTF-8" standalone="no"?>
<!-- Created with Inkscape (http://www.inkscape.org/) -->

<svg
   xmlns:dc="http://purl.org/dc/elements/1.1/"
   xmlns:cc="http://creativecommons.org/ns#"
   xmlns:rdf="http://www.w3.org/1999/02/22-rdf-syntax-ns#"
   xmlns:svg="http://www.w3.org/2000/svg"
   xmlns="http://www.w3.org/2000/svg"
   xmlns:sodipodi="http://sodipodi.sourceforge.net/DTD/sodipodi-0.dtd"
   xmlns:inkscape="http://www.inkscape.org/namespaces/inkscape"
   version="1.1"
   id="svg834"
   xml:space="preserve"
   width="4920.9448"
   height="4920.9448"
   viewBox="0 0 4920.9448 4920.9448"
   sodipodi:docname="TABLE_JOUTES_2020_PRINT.svg"
   inkscape:version="0.92.2 5c3e80d, 2017-08-06"><metadata
     id="metadata840"><rdf:RDF><cc:Work
         rdf:about=""><dc:format>image/svg+xml</dc:format><dc:type
           rdf:resource="http://purl.org/dc/dcmitype/StillImage" /><dc:title></dc:title></cc:Work></rdf:RDF></metadata><defs
     id="defs838"><marker
       inkscape:isstock="true"
       style="overflow:visible"
       id="Arrow1Sstart"
       refX="0.0"
       refY="0.0"
       orient="auto"
       inkscape:stockid="Arrow1Sstart"><path
         transform="scale(0.2) translate(6,0)"
         style="fill-rule:evenodd;stroke:#f4f4f4;stroke-width:1pt;stroke-opacity:1;fill:#f4f4f4;fill-opacity:1"
         d="M 0.0,0.0 L 5.0,-5.0 L -12.5,0.0 L 5.0,5.0 L 0.0,0.0 z "
         id="path1316" /></marker><marker
       inkscape:isstock="true"
       style="overflow:visible"
       id="Arrow1Mstart"
       refX="0.0"
       refY="0.0"
       orient="auto"
       inkscape:stockid="Arrow1Mstart"><path
         transform="scale(0.4) translate(10,0)"
         style="fill-rule:evenodd;stroke:#e6e6e6;stroke-width:1pt;stroke-opacity:0.99607843;fill:#e6e6e6;fill-opacity:0.99607843"
         d="M 0.0,0.0 L 5.0,-5.0 L -12.5,0.0 L 5.0,5.0 L 0.0,0.0 z "
         id="path1310" /></marker><marker
       inkscape:isstock="true"
       style="overflow:visible"
       id="Arrow1Lstart"
       refX="0.0"
       refY="0.0"
       orient="auto"
       inkscape:stockid="Arrow1Lstart"><path
         transform="scale(0.8) translate(12.5,0)"
         style="fill-rule:evenodd;stroke:#e6e6e6;stroke-width:1pt;stroke-opacity:0.99607843;fill:#e6e6e6;fill-opacity:0.99607843"
         d="M 0.0,0.0 L 5.0,-5.0 L -12.5,0.0 L 5.0,5.0 L 0.0,0.0 z "
         id="path1304" /></marker><clipPath
       clipPathUnits="userSpaceOnUse"
       id="clipPath869"><path
         d="M 5586,14849 H 36599 V 46382 H 5586 V 14849"
         id="path867"
         inkscape:connector-curvature="0" /></clipPath></defs><sodipodi:namedview
     pagecolor="#000000"
     bordercolor="#666666"
     borderopacity="1"
     objecttolerance="10"
     gridtolerance="10"
     guidetolerance="10"
     inkscape:pageopacity="0"
     inkscape:pageshadow="2"
     inkscape:window-width="1920"
     inkscape:window-height="1036"
     id="namedview836"
     showgrid="false"
     inkscape:pagecheckerboard="true"
     inkscape:zoom="0.11969652"
     inkscape:cx="364.0149"
     inkscape:cy="2192.634"
     inkscape:window-x="1280"
     inkscape:window-y="0"
     inkscape:window-maximized="1"
     inkscape:current-layer="g842" /><g
     id="g842"
     inkscape:groupmode="layer"
     inkscape:label="GABARITS"
     transform="matrix(1.3333333,0,0,-1.3333333,0,4920.9449)"><g
       id="g910"><g
         id="g912" /></g><g
       transform="matrix(2.8346457,0,0,-2.8346457,1054.0083,1346.7149)"
       id="layer1"
       inkscape:label="Calque 1"><g
         style="stroke-width:0.50020266"
         id="g861"
         inkscape:label="PISTE_1_2"
         transform="matrix(0,-0.04231632,-0.04231605,0,1585.6985,716.64804)"><g
           style="stroke-width:0.50020266"
           id="g863"><g
             style="stroke-width:0.50020266"
             id="g865"
             clip-path="url(#clipPath869)"><g
               style="stroke-width:0.50020266"
               id="g879"
               transform="rotate(90,-4891.5,18425)" /><g
               style="stroke-width:0.50020266"
               id="g885"
               transform="matrix(0.48411,-0.875,0.875,0.48411,28652.5,23316.5)" /><g
               style="stroke-width:0.50020266"
               id="g889"
               transform="rotate(-90,27046,1024.5)" /><g
               style="stroke-width:0.50020266"
               id="g893"
               transform="matrix(0.48411,-0.875,0.875,0.48411,24192.5,24763.5)" /><g
               style="stroke-width:0.50020266"
               id="g897"
               transform="rotate(-90,25216.5,2854)" /><g
               style="stroke-width:0.50020266"
               id="g901"
               transform="matrix(0.48411,-0.875,0.875,0.48411,20532.5,24763.5)" /><g
               style="stroke-width:0.50020266"
               id="g905"
               transform="rotate(-90,23710,5807.5)" /><g
               style="stroke-width:0.50020266"
               id="g911"
               transform="rotate(-90,25481.5,6282)" /><g
               style="stroke-width:0.50020266"
               id="g917"
               transform="rotate(180,14326.25,16264.75)" /><g
               style="stroke-width:0.50020266"
               id="g923"
               transform="rotate(-65.928898,43959.227,-2872.7358)" /><g
               style="stroke-width:0.50020266"
               id="g927"
               transform="rotate(-90,34916,8479.5)" /><g
               style="stroke-width:0.50020266"
               id="g931"
               transform="matrix(0.48411,-0.875,0.875,0.48411,24606.5,40088.5)" /><g
               style="stroke-width:0.50020266"
               id="g935"
               transform="rotate(-90,33086,10309.5)" /><g
               style="stroke-width:0.50020266"
               id="g939"
               transform="matrix(0.03173,-0.9995,0.9995,0.03173,20946.5,40088.5)" /><g
               style="stroke-width:0.50020266"
               id="g943"
               transform="matrix(-0.48411,0.875,-0.875,-0.48411,22776.5,43395.5)" /><g
               style="stroke-width:0.50020266"
               id="g947"
               transform="rotate(-90,32347.5,7741)" /><g
               style="stroke-width:0.50020266"
               id="g951"
               transform="rotate(114.0711,-853.30041,30270.126)" /><g
               style="stroke-width:0.50020266"
               id="g955"
               transform="rotate(-90,33544,4891.5)" /><g
               style="stroke-width:0.50020266"
               id="g961"
               transform="rotate(-90,30591,1938.5)" /><g
               style="stroke-width:0.50020266"
               id="g967"
               transform="matrix(0.49997,-0.86604,0.86604,0.49997,19199.5,31763.5)" /><g
               style="stroke-width:0.50020266"
               id="g973"
               transform="matrix(-0.48411,0.875,-0.875,-0.48411,17902.5,29517.5)" /><g
               style="stroke-width:0.50020266"
               id="g977"
               transform="rotate(-90,22648,2115.5)" /><g
               style="stroke-width:0.50020266"
               id="g981"
               transform="matrix(-0.48411,0.875,-0.875,-0.48411,22362.5,28070.5)" /><g
               style="stroke-width:0.50020266"
               id="g985"
               transform="rotate(-90,24478,285.5)" /><g
               style="stroke-width:0.50020266"
               id="g989"
               transform="matrix(-0.48411,0.875,-0.875,-0.48411,26021.5,28070.5)" /><g
               style="stroke-width:0.50020266"
               id="g993"
               transform="rotate(-90,25984.5,-2668)" /><g
               style="stroke-width:0.50020266"
               id="g999"
               transform="rotate(-90,18425,4891.5)" /><g
               style="stroke-width:0.50020266"
               id="g1005"
               transform="rotate(-90,25866,12332.5)" /><g
               style="stroke-width:0.50020266"
               id="g1011"
               transform="rotate(-90,30517.5,9571)" /><path
               inkscape:connector-curvature="0"
               id="path1191"
               d="m 8336,30639 h 1418 v 236 H 8336 v -236"
               style="fill:#f4f4f4;fill-opacity:1;stroke:none;stroke-width:12.00486469;stroke-linecap:round;stroke-linejoin:round;stroke-miterlimit:10;stroke-dasharray:none;stroke-opacity:1" /><path
               inkscape:connector-curvature="0"
               id="path1189"
               d="m 10462,30875 v -236 h 1418 v 236 h -1418"
               style="fill:#f4f4f4;fill-opacity:1;stroke:none;stroke-width:12.00486469;stroke-linecap:round;stroke-linejoin:round;stroke-miterlimit:10;stroke-dasharray:none;stroke-opacity:1" /><path
               sodipodi:nodetypes="sccscccccscccccssccccccccccsccccsccsccccccccccsscccccscc"
               inkscape:connector-curvature="0"
               d="m 30452.17,41210.52 c 940.298,-609.807 1507.829,-1654.293 1507.329,-2775.269 V 32529.25 c 0.5,-1324.073 -789.446,-2520.724 -2007.224,-3041.154 -1217.778,-520.43 -2628.587,-264.296 -3585.992,650.948 l -4554.96,4355.976 c -1213.313,1160.611 -3047.168,1381.264 -4501.897,541.832 L 14122,33197 l 0.5,-3679.75 c 0.5,-1337.723 707.898,-2575.984 1860.465,-3255.515 1152.566,-679.53 2578.513,-699.047 3749.152,-51.369 497.984,275.52 1102.787,275.519 1600.889,-0.308 640.585,-354.658 1418.403,-354.658 2058.991,0 498.104,275.827 1102.907,275.826 1600.509,0 640.085,-354.658 1417.903,-354.658 2058.632,0.125 1210.379,669.952 2709.424,515.798 3758.038,-386.06 1048.613,-901.857 1425.341,-2360.958 944.398,-3657.735 -480.944,-1296.78 -1717.989,-2157.368 -3101.327,-2157.378 L 13533.25,20009 c -1826.432,0 -3307.25,1480.818 -3307.25,3307.25 v 14882 c 0,1786.074 1417.63,3249.422 3202.279,3305.918 l 7465.738,236.919 c 297.684,9.538 592.377,-61.582 852.991,-206.021 640.583,-354.665 1418.401,-354.665 2058.988,0 498.105,275.827 1102.908,275.826 1601.01,-10e-4 584.498,-323.627 1286.948,-353.581 1896.645,-80.408 1023.085,457.84 2208.221,365.678 3148.519,-244.129 z M 14358,33060 l 3069.428,1772.156 c 1364.027,787.37 3083.518,580.392 4220.963,-508.04 l 4554.839,-4355.854 c 1025.644,-980.333 2537.119,-1254.744 3841.789,-697.179 1304.67,557.564 2150.981,1839.6 2150.481,3258.167 v 5906 c 0.5,1200.942 -607.524,2319.956 -1614.914,2973.275 -1007.391,653.32 -2277.09,752.059 -3373.393,262.059 -541.93,-242.353 -1166.092,-215.739 -1685.692,71.415 -569.436,314.727 -1260.566,314.727 -1830.005,0 -569.437,-314.719 -1260.562,-314.718 -1829.995,0 -298.05,164.571 -634.802,245.842 -975.227,235.019 l -7465.239,-236.917 C 11508.782,41679.51 9990,40111.75 9990,38198.25 v -14882 C 9990,21359.479 11576.479,19773 13533.25,19773 h 15119 c 1482.037,0 2807.356,922.005 3322.617,2311.32 515.261,1389.316 111.648,2952.537 -1011.796,3918.749 -1123.443,966.212 -2729.46,1131.364 -4026.438,414.065 -569.574,-314.848 -1260.699,-314.847 -1829.632,-0.127 -568.936,314.722 -1260.066,314.722 -1829.505,0 -569.437,-314.719 -1260.562,-314.718 -1829.995,0 -569.436,314.722 -1260.566,314.722 -1829.646,-0.125 -1097.535,-607.222 -2434.434,-588.922 -3515.024,48.175 -1080.59,637.097 -1743.809,1798.033 -1744.32,3052.196 z"
               style="fill:#000000;fill-opacity:1;stroke:none;stroke-width:12.00486469;stroke-linecap:round;stroke-linejoin:round;stroke-miterlimit:10;stroke-dasharray:none;stroke-opacity:0.63878329"
               id="path1017" /><path
               d="m 20148,16034.997 v -520 h 1889 v 520 h -1889"
               style="fill:#f4f4f4;fill-opacity:1;stroke:none;stroke-width:12.00486469;stroke-linecap:round;stroke-linejoin:round;stroke-miterlimit:10;stroke-dasharray:none;stroke-opacity:1"
               id="path1019"
               inkscape:connector-curvature="0" /><path
               inkscape:connector-curvature="0"
               id="path1282"
               d="m 9179.3925,29726.875 -79.3604,-10.138 23.8087,467.075 h -78.8409 -78.8477 l 23.8158,-467.075 -79.3604,10.138 134.3923,-180.979 z"
               style="fill:#f4f4f4;fill-opacity:1;stroke:none;stroke-width:6.25253296px;stroke-linecap:butt;stroke-linejoin:miter;stroke-opacity:1" /><path
               inkscape:connector-curvature="0"
               id="path1300"
               d="M 21092.5,23887.943 V 15894.966"
               style="fill:none;stroke:#f4f4f4;stroke-width:105.51519012;stroke-linecap:butt;stroke-linejoin:miter;stroke-miterlimit:4;stroke-dasharray:422.06074978, 844.12149955;stroke-dashoffset:675.29718018;stroke-opacity:1" /><path
               sodipodi:open="true"
               sodipodi:cx="-19903.568"
               sodipodi:cy="-21123.926"
               sodipodi:rx="1548.4739"
               sodipodi:ry="1548.4739"
               sodipodi:end="0.97875319"
               sodipodi:start="5.2756707"
               sodipodi:type="arc"
               d="m -19076.739,-22433.172 a 1548.4739,1548.4739 0 0 1 721.484,1286.979 1548.4739,1548.4739 0 0 1 -684.176,1307.194"
               transform="matrix(0,-1,-1,0,0,0)"
               id="path1302"
               style="opacity:1;fill:none;fill-opacity:1;stroke:#f4f4f4;stroke-width:105.51519012;stroke-linecap:round;stroke-linejoin:round;stroke-miterlimit:4;stroke-dasharray:none;stroke-dashoffset:107.62548828;stroke-opacity:1;marker-start:url(#Arrow1Sstart);paint-order:markers fill stroke" /><text
               transform="matrix(0,-1.0000032,-0.99999681,0,0,0)"
               id="text2216"
               y="-6035.9751"
               x="-21366.557"
               style="font-style:normal;font-variant:normal;font-weight:normal;font-stretch:normal;font-size:250.1013031px;line-height:1.25;font-family:'Barbara Blast';-inkscape-font-specification:'Barbara Blast';letter-spacing:0px;word-spacing:0px;fill:#000000;fill-opacity:1;stroke:none;stroke-width:3.12753344"
               xml:space="preserve"><tspan
                 style="font-style:normal;font-variant:normal;font-weight:normal;font-stretch:normal;font-family:Hind;-inkscape-font-specification:Hind;stroke-width:3.12753344"
                 y="-6035.9751"
                 x="-21366.557"
                 id="tspan2214"
                 sodipodi:role="line">Joutes de robotique 2020 - La Machinerie - OpenBot</tspan></text>
</g></g></g></g></g></svg>