<?xml version="1.0" encoding="UTF-8" standalone="no"?>
<!-- Created with Inkscape (http://www.inkscape.org/) -->

<svg
   xmlns:dc="http://purl.org/dc/elements/1.1/"
   xmlns:cc="http://creativecommons.org/ns#"
   xmlns:rdf="http://www.w3.org/1999/02/22-rdf-syntax-ns#"
   xmlns:svg="http://www.w3.org/2000/svg"
   xmlns="http://www.w3.org/2000/svg"
   xmlns:sodipodi="http://sodipodi.sourceforge.net/DTD/sodipodi-0.dtd"
   xmlns:inkscape="http://www.inkscape.org/namespaces/inkscape"
   version="1.1"
   id="svg110"
   xml:space="preserve"
   width="4920.9448"
   height="4920.9448"
   viewBox="0 0 4920.9448 4920.9448"
   sodipodi:docname="TAPIS_SUIVI.svg"
   inkscape:version="0.92.2 5c3e80d, 2017-08-06"><metadata
     id="metadata116"><rdf:RDF><cc:Work
         rdf:about=""><dc:format>image/svg+xml</dc:format><dc:type
           rdf:resource="http://purl.org/dc/dcmitype/StillImage" /><dc:title></dc:title></cc:Work></rdf:RDF></metadata><defs
     id="defs114" /><sodipodi:namedview
     pagecolor="#000000"
     bordercolor="#666666"
     borderopacity="1"
     objecttolerance="10"
     gridtolerance="10"
     guidetolerance="10"
     inkscape:pageopacity="0"
     inkscape:pageshadow="2"
     inkscape:window-width="1920"
     inkscape:window-height="1036"
     id="namedview112"
     showgrid="false"
     inkscape:pagecheckerboard="true"
     inkscape:zoom="0.1767767"
     inkscape:cx="2047.8522"
     inkscape:cy="2434.2308"
     inkscape:window-x="1280"
     inkscape:window-y="0"
     inkscape:window-maximized="1"
     inkscape:current-layer="g118" /><g
     id="g118"
     inkscape:groupmode="layer"
     inkscape:label="pixartprinting-template-grand-format-adhesifs-pour-sols"
     transform="matrix(1.3333333,0,0,-1.3333333,0,4920.9449)"><path
       inkscape:connector-curvature="0"
       d="M -7.6591097e-6,1.2051829e-5 V 3690.7088 H 3690.7087 V 1.2051829e-5 Z"
       style="fill:#ffffff;fill-opacity:1;stroke:none;stroke-width:0.75115389"
       id="path61" /><g
       id="g186"><g
         id="g188" /></g><path
       inkscape:connector-curvature="0"
       d="M 2.8347,1e-5 V 3685.0394 H 3687.8741 V 1e-5 Z"
       style="fill:none;stroke:#000000;stroke-width:0.75"
       id="path7862" /><path
       inkscape:connector-curvature="0"
       d="M 2.8347,3685.0394 V 1e-5 H 3687.8741 V 3685.0394 Z"
       style="fill:none;stroke:#000000;stroke-width:0.75"
       id="path7868" /><path
       style="fill:#290000;fill-opacity:1;stroke:none;stroke-width:1"
       d="M 1922.168 763.53516 A 680.31496 680.31496 0 0 0 1239.9961 1546.957 A 491.33857 491.33857 0 0 1 1163.0098 1894.2402 A 491.33857 491.33857 0 0 0 1086.0254 2241.5254 A 491.33857 491.33857 0 0 1 1009.041 2588.8105 A 491.33857 491.33857 0 0 0 932.05664 2936.0938 A 491.33857 491.33857 0 0 1 855.07227 3283.3789 A 566.92913 566.92913 0 0 0 1326.6133 4165.0391 L 3594.3301 4165.0391 A 566.92913 566.92913 0 0 0 4161.2598 3598.1094 L 4161.2598 1330.3945 A 566.92913 566.92913 0 1 0 3094.0996 1597.1836 L 3467.6055 2297.5078 A 755.90551 755.90551 0 1 1 2195.9062 2199.6855 L 2456.6934 1851.9688 A 680.31496 680.31496 0 0 0 1922.168 763.53516 z M 1921.627 801.32617 A 642.51968 642.51968 0 0 1 2426.457 1829.291 L 2165.6699 2177.0078 A 793.70079 793.70079 0 1 0 3500.9551 2279.7227 L 3127.4473 1579.3984 A 529.13385 529.13385 0 1 1 4123.4648 1330.3945 L 4123.4648 3598.1094 A 529.13385 529.13385 0 0 1 3594.3301 4127.2441 L 1326.6133 4127.2441 A 529.13385 529.13385 0 0 1 886.50781 3304.3613 A 529.13385 529.13385 0 0 0 969.41406 2930.3613 A 453.54331 453.54331 0 0 1 1040.4766 2609.791 A 529.13385 529.13385 0 0 0 1123.3848 2235.793 A 453.54331 453.54331 0 0 1 1194.4473 1915.2227 A 529.13385 529.13385 0 0 0 1277.3535 1541.2246 A 642.51968 642.51968 0 0 1 1921.627 801.32617 z "
       transform="matrix(0.75000002,0,0,-0.75000002,0,3690.7088)"
       id="path7880" /><path
       inkscape:connector-curvature="0"
       d="m 1859.5277,623.6221 v 170.0787 h -28.3465 V 623.6221 Z"
       style="fill:#000000;stroke:none;stroke-width:0.75;fill-opacity:1"
       id="path7882" /><path
       inkscape:connector-curvature="0"
       d="M 1859.5277,368.50397 V 538.5827 h -28.3465 V 368.50397 Z"
       style="fill:#000000;stroke:none;stroke-width:0.75;fill-opacity:1"
       id="path7884" /></g></svg>