0
SECTION
2
HEADER
9
$INSUNITS
70
4
9
$ACADVER
1
AC1014
9
$HANDSEED
5
FFFF
0
ENDSEC
0
SECTION
2
TABLES
0
TABLE
2
VPORT
5
8
100
AcDbSymbolTable
0
ENDTAB
0
TABLE
2
LTYPE
5
5
100
AcDbSymbolTable
0
LTYPE
5
14
100
AcDbSymbolTableRecord
100
AcDbLinetypeTableRecord
2
BYBLOCK
70
0
0
LTYPE
5
15
100
AcDbSymbolTableRecord
100
AcDbLinetypeTableRecord
2
BYLAYER
70
0
0
ENDTAB
0
TABLE
2
LAYER
5
2
100
AcDbSymbolTable
70
2
0
LAYER
5
50
100
AcDbSymbolTableRecord
100
AcDbLayerTableRecord
2
0
70
0
6
CONTINUOUS
0
ENDTAB
0
TABLE
2
STYLE
5
3
100
AcDbSymbolTable
70
1
0
STYLE
5
11
100
AcDbSymbolTableRecord
100
AcDbTextStyleTableRecord
2
STANDARD
70
0
0
ENDTAB
0
TABLE
2
VIEW
5
6
100
AcDbSymbolTable
70
0
0
ENDTAB
0
TABLE
2
UCS
5
7
100
AcDbSymbolTable
70
0
0
ENDTAB
0
TABLE
2
APPID
5
9
100
AcDbSymbolTable
70
2
0
APPID
5
12
100
AcDbSymbolTableRecord
100
AcDbRegAppTableRecord
2
ACAD
70
0
0
ENDTAB
0
TABLE
2
DIMSTYLE
5
A
100
AcDbSymbolTable
70
1
0
ENDTAB
0
TABLE
2
BLOCK_RECORD
5
1
100
AcDbSymbolTable
70
1
0
BLOCK_RECORD
5
1F
100
AcDbSymbolTableRecord
100
AcDbBlockTableRecord
2
*MODEL_SPACE
0
BLOCK_RECORD
5
1B
100
AcDbSymbolTableRecord
100
AcDbBlockTableRecord
2
*PAPER_SPACE
0
ENDTAB
0
ENDSEC
0
SECTION
2
BLOCKS
0
BLOCK
5
20
100
AcDbEntity
100
AcDbBlockBegin
2
*MODEL_SPACE
0
ENDBLK
5
21
100
AcDbEntity
100
AcDbBlockEnd
0
BLOCK
5
1C
100
AcDbEntity
100
AcDbBlockBegin
2
*PAPER_SPACE
0
ENDBLK
5
1D
100
AcDbEntity
100
AcDbBlockEnd
0
ENDSEC
0
SECTION
2
ENTITIES
0
LWPOLYLINE
5
100
100
AcDbEntity
8
0
100
AcDbPolyline
90
4
70
1
43
0.0
10
-649.99999999999989
20
-650
10
-649.99999999999989
20
650
10
650.00000000000045
20
650
10
650.00000000000011
20
-650
0
ARC
5
101
100
AcDbEntity
8
0
100
AcDbCircle
10
-299.99999999999994
20
-299.99999999997908
30
0
40
140.00000000004803
100
AcDbArc
50
146.27880837033641
51
269.99999999999983
0
ARC
5
102
100
AcDbEntity
8
0
100
AcDbCircle
10
-300
20
-299.99999999997908
30
0
40
150.00000000004806
100
AcDbArc
50
146.27880837033641
51
270
0
LWPOLYLINE
5
103
100
AcDbEntity
8
0
100
AcDbPolyline
90
4
70
1
43
0.0
10
-649.99999999999989
20
650
10
-650
20
-650
10
650
20
-650
10
650.00000000000045
20
650
0
LINE
5
104
100
AcDbEntity
8
0
100
AcDbLine
10
300.00000000000006
20
-439.99999999999994
30
0
11
-300.00000000000034
21
-440.00000000002717
31
0
0
LINE
5
105
100
AcDbEntity
8
0
100
AcDbLine
10
-299.99999999999994
20
-450.00000000002717
30
0
11
300
21
-449.99999999999994
31
0
0
ARC
5
106
100
AcDbEntity
8
0
100
AcDbCircle
10
300
20
-299.99999999999994
30
0
40
150
100
AcDbArc
50
-90
51
0
0
ARC
5
107
100
AcDbEntity
8
0
100
AcDbCircle
10
300.00000000000006
20
-300
30
0
40
139.99999999999994
100
AcDbArc
50
-90
51
0
0
LWPOLYLINE
5
108
100
AcDbEntity
8
0
100
AcDbPolyline
90
14
70
1
43
0.0
10
-300.0000000000004
20
-440.00000000002393
10
300.00000000000006
20
-439.99999999999994
42
0.41421356237309537
10
440
20
-299.99999999999994
10
440
20
300.00000000000006
42
1.2807764064044156
10
176.47058823529426
20
234.11764705882348
10
275.29411764705912
20
48.823529411765705
42
-1.8216731645823092
10
-77.999999999999829
20
76.000000000001521
10
-9.0000000000006786
20
167.9999999999992
42
1.5050222961630326
10
-313.03354624560222
20
244.21769335131046
42
-0.18734528469879524
10
-334.96927496449496
20
145.26391164488138
42
0.18734528469879416
10
-353.77132815211723
20
60.446384467942295
42
-0.18734528469879536
10
-375.70705687101008
20
-38.507397238486831
42
0.18734528469879694
10
-394.50911005863253
20
-123.32492441542644
42
-0.18734528469879641
10
-416.44483877752532
20
-222.27870612185603
42
0.59920608817659837
0
LWPOLYLINE
5
109
100
AcDbEntity
8
0
100
AcDbPolyline
90
14
70
1
43
0.0
10
-363.65565440185861
20
58.929778194489955
42
-0.18734528469879536
10
-384.02454535511623
20
-32.955876247194226
42
0.18734528469879694
10
-404.39343630837385
20
-124.84153068887883
42
-0.18734528469879641
10
-424.76232726163147
20
-216.72718513056344
42
0.59920608817659926
10
-300
20
-450.00000000002393
10
300
20
-449.99999999999994
42
0.41421356237309526
10
450
20
-299.99999999999994
10
450
20
300.00000000000011
42
1.280776406404416
10
167.64705882352953
20
229.41176470588218
10
266.47058823529454
20
44.117647058824332
42
-1.8216731645823081
10
-69.999999999999872
20
70.00000000000145
10
-1.0000000000006892
20
161.99999999999918
42
1.5050222961630333
10
-322.91787249534354
20
242.70108707785818
42
-0.18734528469879536
10
-343.28676344860105
20
150.81543263617397
42
0.18734528469879425
0
LWPOLYLINE
5
110
100
AcDbEntity
8
0
100
AcDbPolyline
90
4
70
1
43
0.0
10
5
20
-430.00000000001353
10
5
20
-370.00000000001353
10
-5
20
-370.00000000001353
10
-5
20
-430.00000000001353
0
LWPOLYLINE
5
111
100
AcDbEntity
8
0
100
AcDbPolyline
90
4
70
1
43
0.0
10
5
20
-520.00000000001353
10
5
20
-460.00000000001353
10
-5
20
-460.00000000001353
10
-5
20
-520.00000000001353
0
ENDSEC
0
SECTION
2
OBJECTS
0
DICTIONARY
5
C
100
AcDbDictionary
3
ACAD_GROUP
350
D
3
ACAD_MLINESTYLE
350
17
0
DICTIONARY
5
D
100
AcDbDictionary
0
DICTIONARY
5
1A
330
C
100
AcDbDictionary
0
DICTIONARY
5
17
100
AcDbDictionary
0
ENDSEC
0
EOF
